<svg width="34" height="33" viewBox="0 0 34 33" fill="none" xmlns="http://www.w3.org/2000/svg">
<g clip-path="url(#clip0_43_152)">
<path d="M23.375 3H11.125C6.75 3 3.25 6.5 3.25 10.875V23.125C3.25 27.5 6.75 31 11.125 31H23.375C27.75 31 31.25 27.5 31.25 23.125V10.875C31.25 6.5 27.75 3 23.375 3Z" fill="#3A559F"/>
<path d="M26.7 16.475C26.525 16.3 26.2625 16.125 26 16.125H21.625V12.8C21.625 12.7125 21.7125 12.625 21.8 12.625H25.125C25.65 12.625 26 12.275 26 11.75V9.125C26 8.6 25.65 8.25 25.125 8.25H21.625C18.7375 8.25 17.25 10.6125 17.25 13.5V16.125H13.75C13.225 16.125 12.875 16.475 12.875 17V19.625C12.875 20.15 13.225 20.5 13.75 20.5H17.25V31H21.625V20.5H24.25C24.6 20.5 24.95 20.325 25.0375 19.975L26.7875 17.35C26.9625 17.0875 26.875 16.7375 26.7 16.475Z" fill="white"/>
</g>
<defs>
<clipPath id="clip0_43_152">
<rect width="28" height="28" fill="white" transform="translate(3.25 3)"/>
</clipPath>
</defs>
</svg>
