<svg width="33" height="33" viewBox="0 0 33 33" fill="none" xmlns="http://www.w3.org/2000/svg">
<path d="M30.5 14.951C30.5 8.41285 24.2199 3.09375 16.4999 3.09375C8.78094 3.09375 2.5 8.41285 2.5 14.951C2.5 20.8124 7.48063 25.7211 14.2084 26.6494C14.6644 26.7519 15.2849 26.9631 15.4419 27.3698C15.5831 27.7392 15.5342 28.3179 15.487 28.691C15.487 28.691 15.3227 29.7221 15.2873 29.9416C15.2264 30.3111 15.0061 31.3864 16.4999 30.7293C17.9942 30.0722 24.5626 25.7745 27.4998 22.2461C29.5287 19.9242 30.5 17.5677 30.5 14.951Z" fill="#2CCF54"/>
<path d="M13.6553 11.7814H12.6733C12.5228 11.7814 12.4004 11.9087 12.4004 12.0651V18.4243C12.4004 18.581 12.5228 18.708 12.6733 18.708H13.6553C13.8059 18.708 13.928 18.581 13.928 18.4243V12.0651C13.928 11.9087 13.8059 11.7814 13.6553 11.7814Z" fill="white"/>
<path d="M20.4147 11.7814H19.4327C19.2821 11.7814 19.16 11.9087 19.16 12.0651V15.8432L16.3645 11.9075C16.3128 11.8267 16.229 11.7867 16.1375 11.7814H15.1558C15.0052 11.7814 14.8828 11.9087 14.8828 12.0651V18.4243C14.8828 18.581 15.0052 18.708 15.1558 18.708H16.1375C16.2883 18.708 16.4104 18.581 16.4104 18.4243V14.6474L19.2094 18.588C19.2597 18.6622 19.345 18.708 19.4327 18.708H20.4147C20.5655 18.708 20.6874 18.581 20.6874 18.4243V12.0651C20.6874 11.9087 20.5655 11.7814 20.4147 11.7814Z" fill="white"/>
<path d="M11.2884 17.1156H8.62013V12.0654C8.62013 11.9085 8.49802 11.7811 8.34773 11.7811H7.36545C7.21489 11.7811 7.09277 11.9085 7.09277 12.0654V18.4235C7.09277 18.5779 7.21435 18.708 7.36518 18.708H11.2884C11.4389 18.708 11.5605 18.5804 11.5605 18.4235V17.3998C11.5605 17.2428 11.4389 17.1156 11.2884 17.1156Z" fill="white"/>
<path d="M25.8372 13.3736C25.9878 13.3736 26.1094 13.2466 26.1094 13.0893V12.0656C26.1094 11.9087 25.9878 11.7811 25.8372 11.7811H21.9143C21.7636 11.7811 21.6416 11.911 21.6416 12.0654V18.4238C21.6416 18.5777 21.7633 18.708 21.9137 18.708H25.8372C25.9878 18.708 26.1094 18.5804 26.1094 18.4238V17.3998C26.1094 17.2431 25.9878 17.1156 25.8372 17.1156H23.1692V16.0407H25.8372C25.9878 16.0407 26.1094 15.9133 26.1094 15.7564V14.7327C26.1094 14.5758 25.9878 14.4482 25.8372 14.4482H23.1692V13.3736H25.8372Z" fill="white"/>
</svg>
