<svg width="34" height="33" viewBox="0 0 34 33" fill="none" xmlns="http://www.w3.org/2000/svg">
<path fill-rule="evenodd" clip-rule="evenodd" d="M5.3 2H27.7C29.2465 2 30.5 3.2535 30.5 4.8V27.2C30.5 28.7465 29.2465 30 27.7 30H5.3C3.7535 30 2.5 28.7465 2.5 27.2V4.8C2.5 3.2535 3.7535 2 5.3 2Z" fill="#010101"/>
<path fill-rule="evenodd" clip-rule="evenodd" d="M20.0818 27.76C20.9337 27.76 21.6245 27.0749 21.6245 26.2299C21.6245 25.3848 20.9337 24.6996 20.0818 24.6996H19.8494C20.7013 24.6996 21.3921 25.3848 21.3921 26.2299C21.3921 27.0749 20.7013 27.76 19.8494 27.76H20.0818Z" fill="#EE1D51"/>
<path fill-rule="evenodd" clip-rule="evenodd" d="M19.8283 24.6996H19.5959C18.7439 24.6996 18.0531 25.3848 18.0531 26.2299C18.0531 27.0749 18.7439 27.76 19.5959 27.76H19.8283C18.9762 27.76 18.2855 27.0749 18.2855 26.2299C18.2855 25.3848 18.9762 24.6996 19.8283 24.6996Z" fill="#66C8CF"/>
<path d="M19.8388 26.9739C20.2532 26.9739 20.5891 26.6408 20.5891 26.2299C20.5891 25.8189 20.2532 25.4858 19.8388 25.4858C19.4245 25.4858 19.0885 25.8189 19.0885 26.2299C19.0885 26.6408 19.4245 26.9739 19.8388 26.9739Z" fill="#010101"/>
<path fill-rule="evenodd" clip-rule="evenodd" d="M8.10001 24.008V24.7836H9.00855V27.7391H9.91743V24.8045H10.657L10.9105 24.008H8.10001ZM15.5385 24.008V24.7836H16.447V27.7391H17.3559V24.8045H18.0954L18.349 24.008H15.5385ZM11.0798 24.4482C11.0798 24.2051 11.2781 24.008 11.5232 24.008C11.7685 24.008 11.967 24.2051 11.967 24.4482C11.967 24.6912 11.7686 24.8883 11.5232 24.8883C11.2781 24.8882 11.0798 24.6912 11.0798 24.4482ZM11.0798 25.2028H11.967V27.7391H11.0798V25.2028ZM12.3475 24.008V27.7391H13.2351V26.775L13.5098 26.5232L14.3762 27.76H15.327L14.0801 25.9574L15.2001 24.8673H14.1225L13.2351 25.7476V24.008H12.3475ZM21.9201 24.008V27.7391H22.8078V26.775L23.0825 26.5232L23.949 27.76H24.9L23.6531 25.9574L24.7731 24.8673H23.6954L22.8078 25.7476V24.008H21.9201Z" fill="white"/>
<path fill-rule="evenodd" clip-rule="evenodd" d="M20.5507 11.0928C21.7764 11.9686 23.2781 12.4839 24.8999 12.4839V9.36456C24.5929 9.36468 24.2868 9.33266 23.9865 9.26902V11.7244C22.3649 11.7244 20.8634 11.2091 19.6373 10.3334V16.6989C19.6373 19.8833 17.0546 22.4645 13.8688 22.4645C12.6801 22.4645 11.5752 22.1053 10.6574 21.4893C11.7049 22.5598 13.1658 23.224 14.7819 23.224C17.968 23.224 20.5508 20.6427 20.5508 17.4582L20.5507 11.0928ZM21.6774 7.94586C21.051 7.26187 20.6397 6.37786 20.5507 5.40054V4.99936H19.6852C19.903 6.24144 20.6461 7.30264 21.6774 7.94586ZM12.6724 19.0458C12.3225 18.5872 12.1333 18.0261 12.1341 17.4492C12.1341 15.9927 13.3155 14.8119 14.773 14.8119C15.0445 14.8117 15.3145 14.8534 15.5734 14.9354V11.7465C15.2709 11.705 14.9656 11.6875 14.6604 11.6939V14.1761C14.4014 14.094 14.1313 14.0524 13.8596 14.0525C12.4021 14.0525 11.2209 15.2334 11.2209 16.6899C11.2209 17.7198 11.8113 18.6115 12.6724 19.0458Z" fill="#EE1D52"/>
<path fill-rule="evenodd" clip-rule="evenodd" d="M19.6373 10.3334C20.8634 11.2091 22.3649 11.7244 23.9865 11.7244V9.26902C23.0813 9.07638 22.28 8.60352 21.6774 7.94586C20.6461 7.30264 19.903 6.24144 19.6852 4.99936H17.4117V17.4581C17.4065 18.9105 16.2272 20.0865 14.7728 20.0865C13.9158 20.0865 13.1544 19.6783 12.6723 19.0458C11.8112 18.6115 11.2208 17.7198 11.2208 16.6899C11.2208 15.2334 12.402 14.0525 13.8595 14.0525C14.1387 14.0525 14.4078 14.096 14.6603 14.1761V11.6939C11.5304 11.7586 9.01324 14.3146 9.01324 17.4582C9.01324 19.0275 9.64011 20.4501 10.6574 21.4895C11.5752 22.1055 12.6801 22.4646 13.8688 22.4646C17.0546 22.4646 19.6373 19.8833 19.6373 16.699V10.3334Z" fill="white"/>
<path fill-rule="evenodd" clip-rule="evenodd" d="M23.9865 9.26902V8.60509C23.1702 8.60632 22.37 8.37783 21.6774 7.94574C22.2905 8.6166 23.0978 9.07923 23.9865 9.26902ZM19.6852 4.99936C19.6644 4.88067 19.6484 4.76118 19.6373 4.64118V4.24H16.4982V16.6989C16.4932 18.1512 15.3139 19.3272 13.8595 19.3272C13.4324 19.3272 13.0293 19.2259 12.6723 19.0458C13.1545 19.6783 13.9158 20.0865 14.7729 20.0865C16.2271 20.0865 17.4065 18.9105 17.4117 17.4581V4.99936H19.6852ZM14.6604 11.6939V10.9871C14.3981 10.9512 14.1336 10.9333 13.8689 10.9335C10.6827 10.9335 8.10001 13.5148 8.10001 16.6989C8.10001 18.6952 9.11506 20.4545 10.6575 21.4893C9.64023 20.45 9.01337 19.0274 9.01337 17.4581C9.01337 14.3146 11.5305 11.7586 14.6604 11.6939Z" fill="#69C9D0"/>
<path fill-rule="evenodd" clip-rule="evenodd" d="M19.8493 27.76C20.7012 27.76 21.3921 27.0749 21.3921 26.2299C21.3921 25.3848 20.7012 24.6996 19.8493 24.6996H19.8282C18.9762 24.6996 18.2855 25.3848 18.2855 26.2299C18.2855 27.0749 18.9762 27.76 19.8282 27.76H19.8493ZM19.0885 26.2299C19.0885 25.8188 19.4245 25.4858 19.8389 25.4858C20.253 25.4858 20.589 25.8188 20.589 26.2299C20.589 26.6409 20.253 26.9741 19.8389 26.9741C19.4245 26.974 19.0885 26.6409 19.0885 26.2299Z" fill="white"/>
</svg>
